<svg width="1060" height="1060" viewBox="0 0 1060 1060" fill="none" xmlns="http://www.w3.org/2000/svg">
<path d="M1042.43 593.236L1019.62 464.429C1016.53 447.32 1006.79 432.134 992.523 422.199C978.257 412.263 960.633 408.391 943.516 411.429L846.476 428.455L857.888 492.85L922.531 481.472C926.772 480.71 931.122 480.792 935.332 481.711C939.542 482.631 943.529 484.371 947.067 486.831C950.604 489.292 953.622 492.426 955.949 496.053C958.275 499.68 959.864 503.73 960.625 507.972L972.036 572.367C972.779 576.604 972.678 580.947 971.74 585.145C970.802 589.344 969.045 593.316 966.569 596.834C964.094 600.353 960.949 603.348 957.314 605.65C953.679 607.951 949.626 609.513 945.387 610.245L880.694 621.607L892.106 686.002L989.145 668.976C997.62 667.506 1005.72 664.381 1012.99 659.778C1020.25 655.175 1026.54 649.185 1031.49 642.151C1036.44 635.116 1039.95 627.176 1041.83 618.782C1043.7 610.389 1043.91 601.708 1042.43 593.236Z" fill="#E6E6E6"/>
<path d="M857.888 492.817L922.365 481.505L910.954 417.11L846.476 428.422L857.888 492.817Z" fill="#CECECE"/>
<path d="M945.172 610.312L880.694 621.624L892.106 686.019L956.584 674.707L945.172 610.312Z" fill="#CECECE"/>
<path d="M185.831 550.289L118.538 538.696C114.179 538.01 109.999 536.467 106.241 534.155C102.483 531.843 99.221 528.808 96.6438 525.226C94.0667 521.645 92.2257 517.588 91.2275 513.29C90.2293 508.992 90.0937 504.538 90.8287 500.188L102.687 434.65C104.406 425.848 109.526 418.079 116.937 413.028C124.347 407.977 133.451 406.051 142.272 407.67L209.565 419.263L221.424 353.726L120.492 336.368C102.861 333.165 84.6783 337.033 69.8775 347.135C55.0768 357.236 44.8486 372.76 41.4062 390.345L17.6058 521.404C16.1288 530.112 16.3949 539.026 18.3888 547.629C20.3826 556.233 24.0645 564.355 29.221 571.525C34.3775 578.695 40.9059 584.771 48.4279 589.399C55.9499 594.027 64.3158 597.115 73.0405 598.486L173.906 615.81L185.831 550.289Z" fill="#E6E6E6"/>
<path d="M185.831 550.289L118.538 538.696C117.105 538.405 115.694 538.017 114.314 537.536L102.373 603.488L173.972 615.777L185.831 550.289Z" fill="#CECECE"/>
<path d="M209.565 419.23L221.424 353.692L149.841 341.403L137.899 407.438C139.362 407.452 140.822 407.557 142.272 407.752L209.565 419.23Z" fill="#CECECE"/>
<path d="M113.619 757.486L450.053 815.256L530.149 372.921C414.78 398.132 294.128 377.41 193.781 315.151L113.619 757.486Z" fill="#F8C460"/>
<path d="M237.374 338.455C233.377 336.556 229.391 334.59 225.416 332.559C214.782 327.11 204.182 321.478 193.715 315.151L113.619 757.486L450.053 815.256L463.75 739.98L443.494 736.485C408.996 730.561 376.014 717.861 346.452 699.119C316.89 680.377 291.334 655.965 271.259 627.291C251.185 598.617 236.989 566.251 229.493 532.06C221.997 497.87 221.349 462.533 227.585 428.091L230.351 412.854C231.21 408.218 233.048 403.819 235.744 399.951C238.439 396.082 241.929 392.834 245.98 390.423C250.031 388.011 254.55 386.493 259.236 385.968C263.921 385.443 268.664 385.925 273.149 387.38C312.295 399.814 352.996 406.678 394.055 407.769C398.916 407.769 403.718 408.824 408.131 410.863C412.543 412.902 416.46 415.875 419.61 419.576C422.76 423.278 425.069 427.62 426.376 432.301C427.683 436.983 427.957 441.893 427.18 446.691L426.584 450.003C425.628 454.433 425.563 459.01 426.394 463.465C427.226 467.92 428.936 472.165 431.425 475.953C433.914 479.74 437.132 482.994 440.892 485.524C444.652 488.055 448.879 489.811 453.325 490.691C457.771 491.57 462.347 491.556 466.788 490.648C471.228 489.741 475.443 487.958 479.187 485.404C482.931 482.85 486.129 479.576 488.594 475.773C491.059 471.97 492.743 467.714 493.546 463.253L505.421 397.715L507.077 388.639C507.933 384.117 509.771 379.837 512.46 376.101C419.089 392.892 322.8 379.715 237.374 338.455Z" fill="#EAAC47"/>
<path d="M98.5137 778.968C209.51 833.499 333.881 854.857 456.711 840.481C463.615 839.708 470.087 836.736 475.172 832.003C480.257 827.27 483.685 821.027 484.95 814.196C485.747 809.275 485.399 804.237 483.932 799.472C482.464 794.708 479.918 790.346 476.49 786.726C473.063 783.107 468.846 780.326 464.169 778.601C459.492 776.876 454.48 776.254 449.523 776.781C339.254 786.484 228.352 767.448 127.631 721.529C123.104 719.405 118.155 718.337 113.155 718.406C108.156 718.475 103.237 719.678 98.7711 721.926C94.3048 724.173 90.4075 727.406 87.3733 731.38C84.339 735.354 82.2472 739.965 81.2556 744.865C80.0193 751.654 81.0365 758.661 84.1523 764.818C87.2681 770.974 92.3114 775.944 98.5137 778.968Z" fill="#E6E6E6"/>
<path d="M148.201 778.968C141.982 775.957 136.919 770.994 133.785 764.837C130.651 758.679 129.618 751.665 130.844 744.865C132.131 737.968 135.708 731.706 140.996 727.094C136.558 725.189 132.069 723.533 127.631 721.529C123.103 719.408 118.152 718.344 113.153 718.415C108.154 718.486 103.236 719.692 98.7703 721.94C94.3048 724.189 90.408 727.423 87.374 731.397C84.34 735.371 82.248 739.982 81.2555 744.882C80.0247 751.674 81.0481 758.683 84.1698 764.839C87.2914 770.996 92.3402 775.963 98.5468 778.984C194.552 826.176 300.851 848.566 407.736 844.108C317.605 840.895 229.166 818.698 148.201 778.968Z" fill="#CECECE"/>
<path d="M950.124 825.243L626.659 882.02L549.676 447.32C604.675 459.587 661.553 460.887 717.055 451.144C772.557 441.402 825.592 420.809 873.125 390.544L950.124 825.243Z" fill="#F8C460"/>
<path d="M936.891 750.563L920.328 753.461C851.183 765.581 780.054 749.769 722.555 709.498C665.056 669.226 625.885 607.785 613.641 538.662V538.132C612.596 532.383 612.994 526.464 614.797 520.906C616.601 515.348 619.754 510.323 623.976 506.283L624.241 506.034C634.175 496.372 647.299 490.676 661.142 490.018H662.02C666.367 489.849 670.703 490.558 674.77 492.104C678.836 493.649 682.549 495.999 685.686 499.012C688.824 502.026 691.321 505.642 693.029 509.643C694.736 513.644 695.619 517.948 695.625 522.298V528.228C695.446 536.291 698.109 544.161 703.147 550.459C708.186 556.757 715.279 561.082 723.185 562.678C727.94 563.488 732.814 563.25 737.467 561.981C742.12 560.712 746.439 558.442 750.124 555.33C753.809 552.218 756.769 548.339 758.799 543.964C760.829 539.589 761.878 534.823 761.875 530V497.769C761.817 491.011 763.856 484.401 767.713 478.851C771.569 473.301 777.052 469.084 783.406 466.781C810.546 457.233 836.717 445.127 861.565 430.625C864.97 428.615 867.679 425.612 869.329 422.017C870.978 418.423 871.488 414.411 870.79 410.518C870.274 407.797 869.17 405.221 867.553 402.973C865.936 400.724 863.847 398.856 861.432 397.5C781.353 445.239 687.779 465.273 595.173 454.508C591.762 454.144 588.333 453.647 584.905 453.2C573.311 451.643 561.518 449.887 549.676 447.403L626.659 882.102L950.124 825.326L936.891 750.563Z" fill="#EAAC47"/>
<path d="M964.65 846.344C858.278 899.862 738.506 920.887 620.266 906.797C613.568 905.982 607.312 903.031 602.425 898.379C597.537 893.728 594.28 887.625 593.136 880.976C592.299 876.199 592.578 871.294 593.949 866.643C595.321 861.992 597.749 857.721 601.044 854.163C604.339 850.605 608.412 847.857 612.944 846.133C617.476 844.409 622.346 843.755 627.172 844.224C733.315 853.729 840.083 834.986 936.642 789.899C941.033 787.814 945.844 786.768 950.704 786.843C955.563 786.917 960.341 788.11 964.665 790.328C968.989 792.546 972.745 795.73 975.64 799.634C978.536 803.538 980.493 808.056 981.361 812.838C982.559 819.478 981.579 826.327 978.567 832.365C975.556 838.402 970.674 843.306 964.65 846.344Z" fill="#E6E6E6"/>
<path d="M669.953 906.797C662.999 905.878 656.551 902.662 651.633 897.659C646.716 892.657 643.611 886.154 642.811 879.185C642.012 872.216 643.564 865.179 647.221 859.193C650.879 853.207 656.431 848.615 662.997 846.145C651.105 845.797 639.18 845.234 627.172 844.224C618.874 843.308 610.553 845.726 604.038 850.946C597.523 856.165 593.348 863.759 592.432 872.057C591.516 880.355 593.934 888.676 599.154 895.191C604.374 901.706 611.968 905.881 620.266 906.797C651.838 910.359 683.634 911.544 715.384 910.341C700.345 909.701 685.202 908.519 669.953 906.797Z" fill="#CECECE"/>
<path d="M541.163 225.25C531.638 220.847 521.264 218.586 510.771 218.625C503.805 218.813 496.932 216.994 490.97 213.385C485.009 209.776 480.212 204.529 477.149 198.27C471.41 185.736 462.682 174.802 451.732 166.428C440.782 158.053 427.944 152.494 414.344 150.238C398.208 147.398 381.597 149.239 366.475 155.544C351.353 161.849 338.353 172.353 329.014 185.815C325.046 191.324 319.429 195.43 312.974 197.538C306.519 199.646 299.562 199.647 293.107 197.541C288.875 196.238 284.526 195.356 280.122 194.907C262.542 193.556 245.089 198.806 231.173 209.632C217.257 220.459 207.875 236.084 204.862 253.456L193.781 315.151C261.524 357.119 339.13 380.495 418.783 382.925C423.643 382.925 428.446 383.981 432.859 386.019C437.271 388.058 441.188 391.031 444.338 394.733C447.488 398.434 449.797 402.776 451.104 407.458C452.411 412.139 452.685 417.049 451.908 421.847L451.312 425.159C450.355 429.59 450.291 434.166 451.122 438.621C451.953 443.076 453.663 447.321 456.153 451.109C458.642 454.896 461.86 458.15 465.62 460.68C469.38 463.211 473.607 464.967 478.053 465.847C482.499 466.727 487.075 466.712 491.516 465.804C495.956 464.897 500.171 463.114 503.915 460.56C507.659 458.006 510.857 454.732 513.322 450.929C515.787 447.126 517.471 442.87 518.274 438.409L530.149 372.872L531.805 363.795C532.8 359.025 534.789 354.518 537.643 350.568C540.497 346.619 544.151 343.315 548.368 340.873C558.552 334.674 566.851 325.812 572.371 315.244C577.89 304.676 580.421 292.802 579.69 280.902C578.959 269.002 574.994 257.527 568.222 247.714C561.45 237.901 552.129 230.123 541.262 225.217L541.163 225.25Z" fill="#E6E6E6"/>
<path d="M517.562 392.018L518.158 388.705C518.935 383.907 518.661 378.998 517.354 374.316C516.047 369.635 513.738 365.293 510.588 361.591C507.438 357.89 503.521 354.917 499.108 352.878C494.696 350.839 489.893 349.783 485.033 349.784C423.223 348.091 362.447 333.52 306.588 307.003C293.143 300.845 282.115 290.41 275.224 277.326C268.333 264.242 265.967 249.244 268.495 234.674L271.078 220.414C272.74 211.453 276.084 202.889 280.933 195.173C280.652 195.173 280.387 195.024 280.088 194.99C262.508 193.635 245.054 198.884 231.136 209.711C217.219 220.538 207.839 236.165 204.828 253.539L193.781 315.151C261.524 357.119 339.13 380.495 418.783 382.925C423.643 382.925 428.446 383.981 432.859 386.019C437.271 388.058 441.188 391.031 444.338 394.733C447.488 398.434 449.797 402.776 451.104 407.458C452.411 412.139 452.685 417.049 451.908 421.847L451.312 425.16C450.355 429.59 450.291 434.166 451.122 438.621C451.953 443.076 453.663 447.322 456.153 451.109C458.642 454.896 461.86 458.15 465.62 460.681C469.38 463.211 473.607 464.967 478.053 465.847C482.499 466.727 487.075 466.712 491.516 465.805C495.956 464.897 500.171 463.114 503.915 460.56C507.659 458.006 510.857 454.732 513.322 450.929C515.787 447.126 517.471 442.87 518.274 438.41L522.199 416.779C517.705 409.359 516.057 400.561 517.562 392.018Z" fill="#CECECE"/>
<path d="M612.812 645.938C612.812 627.643 597.982 612.812 579.688 612.812C561.393 612.812 546.562 627.643 546.562 645.938V679.062C546.562 697.357 561.393 712.188 579.688 712.188C597.982 712.188 612.812 697.357 612.812 679.062V645.938Z" fill="#E6E6E6"/>
<path d="M347.812 480.312C347.812 462.018 332.982 447.188 314.688 447.188C296.393 447.188 281.562 462.018 281.562 480.312V513.438C281.562 531.732 296.393 546.562 314.688 546.562C332.982 546.562 347.812 531.732 347.812 513.438V480.312Z" fill="#E6E6E6"/>
<path d="M870.79 377.36C869.878 372.307 867.001 367.821 862.788 364.884C858.576 361.947 853.372 360.8 848.315 361.692L846.923 361.94C836.282 363.531 825.417 362.618 815.19 359.274C804.963 355.93 795.657 350.248 788.011 342.678C783.389 338.387 777.993 335.014 772.111 332.741C764.747 329.887 758.176 325.309 752.948 319.391C747.406 313.051 740.322 308.247 732.381 305.445C724.44 302.642 715.91 301.935 707.616 303.392C704.793 303.934 702.022 304.721 699.335 305.744C692.012 296.699 682.403 289.777 671.504 285.697C660.604 281.617 648.812 280.527 637.35 282.539C625.887 284.551 615.172 289.593 606.314 297.142C597.456 304.691 590.779 314.471 586.975 325.47C584.074 325.431 581.176 325.647 578.313 326.116C566.899 328.105 556.56 334.075 549.131 342.965C541.702 351.856 537.664 363.091 537.735 374.677C530.694 380.329 524.912 387.39 520.759 395.408C516.606 403.425 514.174 412.222 513.62 421.234C513.008 431.154 514.656 441.082 518.438 450.273C522.221 459.463 528.039 467.676 535.455 474.292C542.872 480.907 551.692 485.754 561.253 488.467C570.814 491.179 580.866 491.687 590.652 489.952C603.073 487.783 614.589 482.025 623.777 473.389C633.841 463.543 647.121 457.662 661.175 456.827H661.92C666.28 456.648 670.631 457.353 674.711 458.898C678.792 460.443 682.518 462.796 685.666 465.818C688.814 468.839 691.319 472.465 693.03 476.479C694.742 480.492 695.624 484.81 695.625 489.173V496.875C695.625 505.66 699.115 514.086 705.327 520.298C711.539 526.51 719.965 530 728.75 530C737.535 530 745.961 526.51 752.173 520.298C758.385 514.086 761.875 505.66 761.875 496.875V464.644C761.814 457.886 763.853 451.275 767.71 445.724C771.566 440.173 777.051 435.957 783.406 433.656C810.546 424.108 836.717 412.001 861.565 397.5C864.976 395.488 867.69 392.479 869.339 388.878C870.988 385.277 871.495 381.257 870.79 377.36Z" fill="#E6E6E6"/>
<path d="M563.224 421.234C563.779 412.222 566.21 403.425 570.363 395.408C574.516 387.391 580.298 380.329 587.339 374.677C587.269 363.091 591.307 351.856 598.736 342.966C606.165 334.075 616.504 328.105 627.917 326.116C630.78 325.647 633.679 325.431 636.579 325.47C639.637 316.769 644.494 308.812 650.836 302.116C657.177 295.421 664.86 290.139 673.381 286.614C665.181 283.19 656.365 281.484 647.478 281.602C638.592 281.721 629.825 283.661 621.718 287.303C613.612 290.945 606.338 296.211 600.348 302.776C594.358 309.341 589.778 317.064 586.892 325.47C583.991 325.431 581.093 325.647 578.23 326.116C566.816 328.105 556.477 334.075 549.048 342.966C541.619 351.856 537.581 363.091 537.652 374.677C530.611 380.329 524.829 387.391 520.676 395.408C516.523 403.425 514.091 412.222 513.537 421.234C512.725 432.347 514.778 443.482 519.501 453.575C524.224 463.667 531.458 472.378 540.51 478.875C549.563 485.371 560.132 489.436 571.205 490.679C582.278 491.923 593.484 490.304 603.753 485.977C591.078 480.776 580.351 471.733 573.082 460.12C565.812 448.507 562.365 434.908 563.224 421.234Z" fill="#CECECE"/>
<path d="M397.5 645.938C415.794 645.938 430.625 631.107 430.625 612.812C430.625 594.518 415.794 579.688 397.5 579.688C379.206 579.688 364.375 594.518 364.375 612.812C364.375 631.107 379.206 645.938 397.5 645.938Z" fill="#E6E6E6"/>
<path d="M778.438 662.5C796.732 662.5 811.562 647.669 811.562 629.375C811.562 611.081 796.732 596.25 778.438 596.25C760.143 596.25 745.312 611.081 745.312 629.375C745.312 647.669 760.143 662.5 778.438 662.5Z" fill="#E6E6E6"/>
<path d="M104.228 210.46C105.756 212.042 107.583 213.303 109.604 214.171C111.624 215.039 113.798 215.496 115.997 215.515C118.196 215.535 120.377 215.116 122.413 214.283C124.448 213.45 126.297 212.22 127.852 210.665C129.407 209.11 130.637 207.261 131.47 205.225C132.303 203.19 132.722 201.009 132.703 198.81C132.684 196.611 132.227 194.437 131.359 192.417C130.491 190.396 129.229 188.568 127.647 187.04L111.085 170.478C107.961 167.461 103.777 165.792 99.4345 165.829C95.0918 165.867 90.9377 167.609 87.8669 170.68C84.7961 173.75 83.0542 177.905 83.0165 182.247C82.9788 186.59 84.6482 190.774 87.6652 193.897L104.228 210.46Z" fill="#F8C460"/>
<path d="M645.937 215.313C650.33 215.312 654.542 213.566 657.647 210.46L674.21 193.897C677.227 190.774 678.896 186.59 678.858 182.247C678.821 177.905 677.079 173.75 674.008 170.68C670.937 167.609 666.783 165.867 662.44 165.829C658.098 165.792 653.914 167.461 650.79 170.478L634.228 187.04C631.912 189.357 630.335 192.308 629.696 195.52C629.058 198.732 629.386 202.062 630.639 205.088C631.892 208.114 634.015 210.7 636.738 212.52C639.461 214.34 642.662 215.312 645.937 215.313Z" fill="#F8C460"/>
<path d="M944.062 314.688C948.455 314.687 952.667 312.941 955.772 309.835L972.335 293.272C975.352 290.149 977.021 285.965 976.983 281.622C976.946 277.28 975.204 273.125 972.133 270.055C969.062 266.984 964.908 265.242 960.565 265.204C956.223 265.167 952.039 266.836 948.915 269.853L932.353 286.415C930.037 288.732 928.46 291.683 927.821 294.895C927.183 298.107 927.511 301.437 928.764 304.463C930.017 307.489 932.14 310.075 934.863 311.895C937.586 313.715 940.787 314.687 944.062 314.688Z" fill="#F8C460"/>
<path d="M858.302 513.437C854.411 513.434 850.645 512.062 847.665 509.56C844.685 507.059 842.681 503.588 842.004 499.757L832.282 444.918C831.518 440.592 832.503 436.138 835.022 432.538C837.541 428.939 841.387 426.487 845.714 425.722C850.041 424.958 854.494 425.944 858.094 428.463C861.694 430.982 864.146 434.828 864.91 439.155L874.632 493.993C875.399 498.313 874.42 502.76 871.911 506.359C869.402 509.958 865.568 512.414 861.25 513.189C860.276 513.355 859.29 513.438 858.302 513.437Z" fill="white"/>
</svg>
