<?xml version="1.0" encoding="UTF-8"?>
<svg version="1.1" xmlns="http://www.w3.org/2000/svg" width="32" height="32">
<path d="M0 0 C3.31124677 1.22372163 3.8572584 2.2881053 5.875 5.0625 C6.865 5.3925 7.855 5.7225 8.875 6.0625 C11.875 7.0625 11.875 7.0625 13.8125 8.8125 C15.32422142 12.01379241 15.00565198 13.74120979 13.875 17.0625 C11.46696729 18.91483285 9.94758075 20.0625 6.875 20.0625 C6.71064453 20.98482422 6.71064453 20.98482422 6.54296875 21.92578125 C6.30513672 23.13814453 6.30513672 23.13814453 6.0625 24.375 C5.91167969 25.17550781 5.76085937 25.97601562 5.60546875 26.80078125 C4.78278713 29.34801472 3.98697077 30.44263892 1.875 32.0625 C-1.57868904 32.57687922 -3.36851227 32.56637244 -6.30078125 30.61328125 C-9.02725471 26.80088903 -8.56026002 23.3727466 -8.375 18.8125 C-8.35695313 17.97203125 -8.33890625 17.1315625 -8.3203125 16.265625 C-8.27330798 14.19742605 -8.20156724 12.12981559 -8.125 10.0625 C-9.775 10.0625 -11.425 10.0625 -13.125 10.0625 C-12.795 11.7125 -12.465 13.3625 -12.125 15.0625 C-11.135 15.3925 -10.145 15.7225 -9.125 16.0625 C-9.125 17.3825 -9.125 18.7025 -9.125 20.0625 C-14.875 18.4375 -14.875 18.4375 -17.125 15.0625 C-16.9375 11.5 -16.9375 11.5 -16.125 8.0625 C-13.125 6.0625 -13.125 6.0625 -10.75 5.75 C-7.85518753 5.24264707 -7.85518753 5.24264707 -5.6875 2.4375 C-3.125 0.0625 -3.125 0.0625 0 0 Z M-3.125 4.0625 C-3.455 4.7225 -3.785 5.3825 -4.125 6.0625 C-2.145 6.0625 -0.165 6.0625 1.875 6.0625 C1.545 5.4025 1.215 4.7425 0.875 4.0625 C-0.445 4.0625 -1.765 4.0625 -3.125 4.0625 Z M5.875 9.0625 C5.875 11.3725 5.875 13.6825 5.875 16.0625 C7.525 15.7325 9.175 15.4025 10.875 15.0625 C10.545 13.4125 10.215 11.7625 9.875 10.0625 C8.555 9.7325 7.235 9.4025 5.875 9.0625 Z M-4.125 13.0625 C-4.125 15.3725 -4.125 17.6825 -4.125 20.0625 C-3.135 19.7325 -2.145 19.4025 -1.125 19.0625 C-1.125 17.0825 -1.125 15.1025 -1.125 13.0625 C-2.115 13.0625 -3.105 13.0625 -4.125 13.0625 Z M-4.125 23.0625 C-3.795 24.7125 -3.465 26.3625 -3.125 28.0625 C-1.475 27.7325 0.175 27.4025 1.875 27.0625 C1.875 25.0825 1.875 23.1025 1.875 21.0625 C-0.20928209 21.0625 -2.22317964 22.28226601 -4.125 23.0625 Z " fill="#17628E" transform="translate(17.125,-0.0625)"/>
</svg>
