<svg width="55" height="55" viewBox="0 0 55 55" fill="none" xmlns="http://www.w3.org/2000/svg">
<path d="M5.88936 33.1177C5.52928 33.1177 5.19756 32.89 5.07725 32.5368C4.22475 30.0472 3.79248 27.4519 3.79248 24.8248C3.79248 21.8221 4.34076 18.9166 5.421 16.1863C8.66428 7.91227 16.1494 2.19313 24.9546 1.26414C25.7787 1.17391 26.6364 1.1275 27.5001 1.1275C32.1845 1.1275 36.7203 2.49649 40.6176 5.08664C42.8743 6.59141 44.8526 8.46227 46.4966 10.6477C48.2179 12.9534 49.482 15.4963 50.2546 18.2084C50.8802 20.338 51.1982 22.5663 51.1982 24.8248C51.1982 27.4699 50.7608 30.0627 49.8997 32.5308C49.7596 32.9304 49.348 33.165 48.9337 33.0928C48.7455 33.0584 48.5427 33.0404 48.3322 33.0404H6.66881C6.44709 33.0404 6.24686 33.0593 6.07326 33.0971C6.01139 33.1117 5.95037 33.1177 5.88936 33.1177ZM27.5001 2.84625C26.6991 2.84625 25.9051 2.88922 25.1385 2.97258C16.971 3.83453 10.029 9.13945 7.01857 16.8171C6.0174 19.3471 5.51037 22.0404 5.51037 24.8248C5.51037 27.0325 5.83951 29.2162 6.49006 31.3251C6.5485 31.3234 6.60865 31.3225 6.66881 31.3225H48.3313C48.3846 31.3225 48.4362 31.3234 48.4886 31.3242C49.146 29.2316 49.4786 27.0488 49.4786 24.8248C49.4786 22.7296 49.1838 20.6645 48.602 18.6854C47.8853 16.1683 46.714 13.8127 45.1198 11.6772C43.5953 9.64992 41.7588 7.91313 39.6637 6.51664C36.0517 4.11641 31.8451 2.84625 27.5001 2.84625Z" fill="#92E136"/>
<path d="M17.2056 33.0413H12.3158C11.8981 33.0413 11.5415 32.7405 11.4693 32.3288C11.3877 31.8631 11.3292 31.3964 11.2948 30.9427C11.1677 29.2617 10.0874 27.9452 9.20313 27.1365C8.47953 26.4885 8.10828 25.5054 8.21656 24.5128C8.55774 21.4732 7.69235 18.9939 5.6436 17.1411C5.37805 16.9013 5.28953 16.5224 5.42016 16.1898C8.6643 7.91228 16.1495 2.19314 24.9546 1.26415C25.1437 1.24525 25.3448 1.29079 25.5098 1.3965C27.378 2.60048 28.8905 3.86634 29.8298 4.7154C30.3678 5.20782 30.5981 5.92196 30.4503 6.63009C30.3042 7.33048 29.8135 7.8865 29.1372 8.11767C29.1363 8.11767 29.1363 8.11767 29.1355 8.11853C28.2065 8.43306 27.0558 8.52845 25.7195 8.40126C24.2834 8.25689 23.1095 8.72095 22.2123 9.77884C21.5652 10.5523 20.6191 10.9888 19.5509 11.0034C18.2919 11.0138 16.3583 11.5638 14.2631 14.1299C13.5782 14.9677 13.3316 15.7567 13.5077 16.543C13.9503 18.5187 16.8413 20.0346 17.717 20.4523C17.9232 20.5554 18.1664 20.637 18.4371 20.6946C20.2401 21.1131 21.7019 22.0473 22.6807 23.3991C23.1903 24.0995 23.3905 24.9992 23.2298 25.8663C23.0674 26.7403 22.5518 27.5138 21.8153 27.9899C20.0038 29.1715 18.7198 30.6883 18.0031 32.4973C17.8742 32.8256 17.558 33.0413 17.2056 33.0413ZM13.0574 31.3225H16.6384C17.5176 29.4164 18.9424 27.8128 20.8803 26.5495C21.2232 26.327 21.4638 25.9643 21.5403 25.5527C21.6168 25.1419 21.5283 24.7363 21.2911 24.4088C20.5477 23.3827 19.4615 22.6978 18.0633 22.3721C17.6628 22.2862 17.2881 22.159 16.9641 21.9966C15.6287 21.3598 12.4266 19.5766 11.8311 16.9177C11.5363 15.6011 11.9076 14.2966 12.9328 13.0419C15.4499 9.96017 17.9112 9.29673 19.5337 9.28384C19.9238 9.27868 20.4824 9.16782 20.8992 8.67111C21.7861 7.62525 23.3562 6.43501 25.8879 6.68939C27.2405 6.81915 28.1016 6.65243 28.5829 6.49001C28.7092 6.44704 28.7539 6.35079 28.7702 6.27775C28.7805 6.22618 28.7926 6.09384 28.6757 5.98642C27.8301 5.22243 26.4895 4.09751 24.8352 3.00611C16.9899 3.94282 10.3134 8.98821 7.23602 16.2869C8.81469 17.8956 10.3891 20.5786 9.92586 24.701C9.87774 25.1341 10.0436 25.5802 10.3573 25.8612C11.4779 26.8864 12.84 28.5708 13.0093 30.8112C13.0196 30.9805 13.0368 31.1506 13.0574 31.3225ZM28.8596 7.3047H28.8682H28.8596Z" fill="#92E136"/>
<path d="M49.0883 33.1066C49.0368 33.1066 48.9852 33.1023 48.9328 33.0928C48.7446 33.0584 48.5418 33.0404 48.3312 33.0404H33.9358C33.5001 33.0404 33.134 32.7156 33.0825 32.2833C32.9244 30.9607 33.6333 29.706 34.8442 29.1612C34.8777 29.1457 34.913 29.1328 34.9482 29.1225C35.0659 29.046 35.0977 28.936 35.1055 28.8724C35.1158 28.7977 35.1106 28.6533 34.9671 28.5338C34.3587 28.044 33.6849 27.3926 32.8547 26.492C31.9825 25.5432 31.5459 24.3074 31.6233 23.0106C31.7015 21.7164 32.309 20.4927 33.2896 19.6539C34.8708 18.2755 36.6652 17.0603 38.6151 16.0471C39.2769 15.7128 40.0297 15.6913 40.694 15.9861C41.3583 16.2817 41.8507 16.8592 42.044 17.5708C42.093 17.771 42.1601 17.9386 42.2262 18.1122C42.5614 18.9853 43.2412 19.6032 44.1151 19.8653C45.063 20.1498 46.1072 19.977 46.909 19.4013C47.5956 18.9106 48.2444 18.3786 48.8365 17.8191C49.054 17.6138 49.3591 17.5347 49.6512 17.6146C49.9391 17.6928 50.1669 17.9154 50.2511 18.2024C50.8776 20.338 51.1964 22.5672 51.1964 24.8256C51.1964 27.4708 50.759 30.0635 49.8979 32.5316C49.7767 32.8806 49.4476 33.1066 49.0883 33.1066ZM34.9284 31.3225H48.3312C48.3845 31.3225 48.4361 31.3234 48.4885 31.3242C49.1459 29.2316 49.4785 27.0488 49.4785 24.8248C49.4785 23.1928 49.2998 21.5781 48.9457 20.008C48.6105 20.2804 48.2651 20.5451 47.9101 20.7977C46.6804 21.6803 45.0768 21.9467 43.6227 21.511C42.2348 21.0951 41.1486 20.1008 40.6441 18.7842C40.5281 18.4834 40.4396 18.2454 40.3794 17.9979C40.3073 17.7332 40.1079 17.6069 39.9953 17.557C39.8844 17.5081 39.6619 17.4462 39.3998 17.5777C38.1502 18.2265 36.263 19.3445 34.4128 20.9559C33.7691 21.5067 33.3901 22.2707 33.3386 23.1146C33.2887 23.9413 33.5663 24.7277 34.1189 25.3292C34.8889 26.1654 35.5042 26.7618 36.0542 27.2044C36.624 27.6762 36.9033 28.3809 36.8096 29.0959C36.7168 29.8066 36.2682 30.4124 35.6099 30.7149C35.5678 30.7347 35.524 30.751 35.4801 30.7631C35.2404 30.8885 35.0496 31.087 34.9284 31.3225Z" fill="#92E136"/>
<path d="M43.1759 12.3484C40.6828 12.3484 38.4622 11.5844 36.8706 10.8256C36.2244 10.5145 35.8007 9.88024 35.7612 9.16867C35.7208 8.45453 36.074 7.77477 36.6824 7.39321C37.602 6.84149 38.5636 6.09727 39.5545 5.17258C39.8475 4.90016 40.2867 4.86492 40.6175 5.08578C42.8828 6.59571 44.8611 8.46828 46.4991 10.6511C46.6718 10.8814 46.7182 11.1822 46.622 11.4538C46.5266 11.7245 46.3014 11.9298 46.0221 12.0003C45.0484 12.2452 44.0937 12.3484 43.1759 12.3484ZM40.2153 6.89391C39.313 7.68969 38.4304 8.34797 37.5822 8.85758C37.492 8.9143 37.4739 9.00711 37.4774 9.07242C37.4817 9.13688 37.5074 9.22367 37.614 9.27524C39.2511 10.0564 41.6376 10.8479 44.2381 10.5738C43.0521 9.185 41.7038 7.9518 40.2153 6.89391Z" fill="#92E136"/>
<path d="M48.3312 53.8725H6.66872C3.77692 53.8725 1.4231 51.5195 1.4231 48.6269V36.5673C1.4231 34.0218 3.2381 31.8536 5.73974 31.4119C6.00099 31.3543 6.32411 31.3225 6.66786 31.3225H48.3304C48.6449 31.3225 48.9517 31.3491 49.2413 31.4024C51.7507 31.8424 53.576 34.0158 53.576 36.5673V48.6277C53.5769 51.5195 51.223 53.8725 48.3312 53.8725ZM6.66872 33.0413C6.447 33.0413 6.24677 33.0602 6.07317 33.098C4.3613 33.4013 3.14271 34.8571 3.14271 36.5673V48.6277C3.14271 50.5725 4.72481 52.1546 6.66958 52.1546H48.3321C50.2769 52.1546 51.859 50.5725 51.859 48.6277V36.5673C51.859 34.8511 50.6309 33.391 48.9405 33.0937C48.7463 33.0584 48.5435 33.0404 48.3329 33.0404H6.66872V33.0413Z" fill="#102C3C"/>
<path d="M10.8393 38.8712L14.5071 44.422V38.8197C14.5071 38.4553 14.5853 38.1829 14.7417 38.0007C14.8981 37.8185 15.1087 37.7274 15.3742 37.7274C15.6484 37.7274 15.8649 37.8185 16.0231 38.0007C16.1812 38.1829 16.2611 38.4562 16.2611 38.8197V46.2266C16.2611 47.0534 15.9182 47.4667 15.2333 47.4667C15.0623 47.4667 14.9076 47.4418 14.7709 47.3928C14.6343 47.3438 14.5054 47.2656 14.3851 47.1582C14.2648 47.0508 14.1539 46.9262 14.0508 46.7827C13.9477 46.6391 13.8454 46.4922 13.7423 46.3427L10.1638 40.8564V46.3745C10.1638 46.7345 10.0805 47.0061 9.9129 47.19C9.74618 47.3739 9.53134 47.4659 9.27009 47.4659C9.00024 47.4659 8.78368 47.373 8.62126 47.1866C8.45884 47.0001 8.3772 46.7294 8.3772 46.3736V39.1076C8.3772 38.7991 8.41157 38.5576 8.48032 38.3814C8.56196 38.1889 8.69688 38.0316 8.88509 37.9096C9.07329 37.7876 9.27696 37.7266 9.49524 37.7266C9.66626 37.7266 9.81321 37.7541 9.93524 37.8099C10.0573 37.8658 10.1647 37.9405 10.2567 38.0351C10.3486 38.1296 10.4431 38.2516 10.5394 38.4012C10.6356 38.5507 10.7362 38.7088 10.8393 38.8712Z" fill="#102C3C"/>
<path d="M24.555 39.3594H20.2573V41.6719H24.2147C24.5061 41.6719 24.7235 41.7373 24.867 41.8679C25.0105 41.9985 25.0818 42.1712 25.0818 42.3852C25.0818 42.5992 25.0114 42.7737 24.8696 42.9086C24.7286 43.0435 24.5095 43.1105 24.2147 43.1105H20.2573V45.7892H24.7029C25.0028 45.7892 25.2288 45.8588 25.3809 45.998C25.533 46.1373 25.6086 46.3229 25.6086 46.5541C25.6086 46.7766 25.533 46.958 25.3809 47.0972C25.2288 47.2364 25.0028 47.306 24.7029 47.306H19.5182C19.1032 47.306 18.8041 47.2141 18.6219 47.0302C18.4397 46.8462 18.3486 46.548 18.3486 46.1373V39.0577C18.3486 38.7836 18.389 38.5601 18.4707 38.3866C18.5523 38.213 18.6795 38.0866 18.8531 38.0076C19.0267 37.9285 19.2484 37.889 19.5182 37.889H24.555C24.8593 37.889 25.0853 37.956 25.2331 38.0909C25.3809 38.2259 25.4548 38.4029 25.4548 38.6212C25.4548 38.8437 25.3809 39.0225 25.2331 39.1574C25.0844 39.2923 24.8584 39.3594 24.555 39.3594Z" fill="#102C3C"/>
<path d="M33.7923 45.8219L32.2695 40.1758L30.7278 45.8228C30.6075 46.2507 30.513 46.5584 30.4416 46.7449C30.3712 46.9313 30.2474 47.0981 30.0721 47.2459C29.8968 47.3937 29.663 47.4676 29.3717 47.4676C29.1362 47.4676 28.942 47.4238 28.7899 47.3361C28.6378 47.2485 28.5149 47.1238 28.4204 46.9631C28.3258 46.8024 28.2494 46.6117 28.1892 46.3917C28.1291 46.1708 28.0758 45.9663 28.0285 45.7781L26.461 39.4376C26.3665 39.0689 26.3201 38.7888 26.3201 38.5963C26.3201 38.3522 26.406 38.1468 26.577 37.9792C26.748 37.8125 26.9603 37.7283 27.213 37.7283C27.5601 37.7283 27.793 37.84 27.9133 38.0626C28.0337 38.2852 28.1385 38.6083 28.2279 39.0328L29.4611 44.532L30.8421 39.386C30.9452 38.9924 31.0372 38.6925 31.118 38.4863C31.1987 38.28 31.3319 38.103 31.5158 37.9535C31.6998 37.8039 31.9507 37.7283 32.2678 37.7283C32.5892 37.7283 32.8384 37.8065 33.0163 37.9629C33.1942 38.1193 33.3171 38.2895 33.3858 38.4734C33.4546 38.6573 33.5466 38.9615 33.6617 39.386L35.0556 44.532L36.2888 39.0328C36.349 38.7458 36.4057 38.5206 36.459 38.3582C36.5123 38.1958 36.6042 38.0497 36.7348 37.9217C36.8655 37.7928 37.0554 37.7292 37.3037 37.7292C37.5521 37.7292 37.7626 37.8117 37.9362 37.9767C38.1098 38.1417 38.1966 38.3479 38.1966 38.5963C38.1966 38.7716 38.1494 39.0526 38.0557 39.4376L36.4882 45.7781C36.3808 46.206 36.2923 46.5197 36.2218 46.7191C36.1513 46.9185 36.031 47.0929 35.8617 47.2424C35.6924 47.392 35.4535 47.4676 35.145 47.4676C34.8537 47.4676 34.6208 47.3946 34.4446 47.2493C34.2693 47.1041 34.1473 46.9399 34.0785 46.7578C34.0098 46.5756 33.9169 46.2636 33.7923 45.8219Z" fill="#102C3C"/>
<path d="M46.622 44.4795C46.622 45.0493 46.475 45.5606 46.182 46.0152C45.8889 46.4698 45.4593 46.8248 44.8938 47.0817C44.3283 47.3387 43.658 47.4676 42.8829 47.4676C41.9539 47.4676 41.1864 47.2923 40.5832 46.9408C40.1552 46.6881 39.8071 46.3512 39.539 45.9293C39.2718 45.5073 39.1377 45.0974 39.1377 44.6987C39.1377 44.4675 39.2176 44.269 39.3783 44.1048C39.539 43.9398 39.7436 43.8573 39.9919 43.8573C40.193 43.8573 40.3632 43.9218 40.5024 44.0498C40.6416 44.1787 40.7602 44.3687 40.859 44.6213C40.9793 44.9212 41.1082 45.1713 41.2475 45.3733C41.3867 45.5744 41.5826 45.7402 41.8353 45.8709C42.0879 46.0015 42.4196 46.0668 42.8313 46.0668C43.3968 46.0668 43.8557 45.9353 44.2089 45.6715C44.5621 45.4085 44.7391 45.0794 44.7391 44.6858C44.7391 44.373 44.6437 44.1194 44.4529 43.9244C44.2622 43.7293 44.0164 43.5806 43.7139 43.4775C43.4122 43.3744 43.0083 43.2652 42.503 43.1501C41.8267 42.9919 41.2604 42.8063 40.804 42.5941C40.3477 42.3818 39.9859 42.093 39.7186 41.7269C39.4514 41.3609 39.3173 40.9054 39.3173 40.3614C39.3173 39.8432 39.4582 39.3826 39.741 38.9804C40.0237 38.5782 40.4328 38.268 40.9682 38.0523C41.5036 37.8357 42.1335 37.7274 42.8571 37.7274C43.4354 37.7274 43.9356 37.7987 44.3575 37.9423C44.7795 38.0858 45.1293 38.2766 45.4077 38.5137C45.6861 38.7518 45.8898 39.001 46.0179 39.2623C46.1468 39.5235 46.2104 39.7787 46.2104 40.0271C46.2104 40.254 46.1304 40.4585 45.9697 40.6407C45.809 40.8229 45.6088 40.914 45.369 40.914C45.1507 40.914 44.9849 40.859 44.8714 40.7498C44.758 40.6407 44.6351 40.4619 44.5019 40.2136C44.3309 39.8578 44.1247 39.5811 43.8849 39.3817C43.6451 39.1823 43.2593 39.0827 42.7282 39.0827C42.2357 39.0827 41.8387 39.1909 41.5362 39.4075C41.2346 39.6241 41.0833 39.8836 41.0833 40.1878C41.0833 40.376 41.1349 40.5393 41.2371 40.6759C41.3403 40.8126 41.4812 40.9312 41.6608 41.0291C41.8404 41.128 42.0226 41.2044 42.2065 41.2603C42.3904 41.3162 42.6946 41.3969 43.1192 41.5044C43.6503 41.629 44.1307 41.7656 44.5612 41.9151C44.9918 42.0647 45.3579 42.2469 45.6595 42.4609C45.9611 42.6748 46.1966 42.9455 46.3659 43.2738C46.5369 43.603 46.622 44.0043 46.622 44.4795Z" fill="#102C3C"/>
</svg>
