<svg width="55" height="53" viewBox="0 0 55 53" fill="none" xmlns="http://www.w3.org/2000/svg">
<path d="M39.0914 18.1909C36.7403 16.223 34.8328 13.4484 32.4226 11.5219" stroke="#92E136" stroke-width="2" stroke-miterlimit="10" stroke-linecap="round" stroke-linejoin="round"/>
<path d="M27.1108 49.3501C28.1097 50.3489 29.0227 51.4436 30.5163 51.6375C32.5911 51.9072 34.547 50.3905 34.796 48.3117C34.934 47.1594 34.529 45.9866 33.7101 45.1645C36.1762 47.6165 40.5001 45.6035 40.201 42.135C40.124 41.2442 39.7297 40.4009 39.0985 39.7681C41.5621 42.2248 45.893 40.2136 45.5935 36.7423C45.5167 35.8515 45.1224 35.0084 44.4912 34.3754C45.9256 35.8076 48.305 35.8518 49.788 34.4677C50.9602 33.7375 51.307 32.0034 50.9602 30.7895C49.9198 27.8415 46.7984 26.4543 44.9972 24.0964" stroke="#92E136" stroke-width="2" stroke-miterlimit="10" stroke-linecap="round" stroke-linejoin="round"/>
<path d="M26.8458 5.94515C26.782 5.88134 26.7143 5.82411 26.6472 5.76567C20.6672 0.184137 11.2953 0.30431 5.46593 6.13365C-0.141091 11.7407 -0.467623 20.626 4.48218 26.6173L4.42999 26.6695L5.54015 27.7795" stroke="#92E136" stroke-width="2" stroke-miterlimit="10" stroke-linecap="round" stroke-linejoin="round"/>
<path d="M38.5306 39.2005L30.3796 31.0496" stroke="#92E136" stroke-width="2" stroke-miterlimit="10" stroke-linecap="round" stroke-linejoin="round"/>
<path d="M43.9232 33.8079L35.7722 25.6569" stroke="#92E136" stroke-width="2" stroke-miterlimit="10" stroke-linecap="round" stroke-linejoin="round"/>
<path d="M4.35777 34.3545C2.8687 32.8655 2.8687 30.4511 4.35777 28.962L8.97393 24.3457C10.4632 22.8566 12.8774 22.8566 14.3666 24.3457C15.8557 25.8349 15.8557 28.2493 14.3666 29.7384L9.75029 34.3545C8.26122 35.8438 5.84684 35.8438 4.35777 34.3545Z" stroke="#102C3C" stroke-width="2" stroke-miterlimit="10" stroke-linecap="round" stroke-linejoin="round"/>
<path d="M9.75035 39.7472C8.26128 38.2581 8.26128 35.8437 9.75035 34.3545L14.3667 29.7383C15.8558 28.2492 18.27 28.2492 19.7592 29.7383C21.2483 31.2276 21.2483 33.6419 19.7592 35.131L15.143 39.7472C13.6538 41.2364 11.2394 41.2364 9.75035 39.7472Z" stroke="#102C3C" stroke-width="2" stroke-miterlimit="10" stroke-linecap="round" stroke-linejoin="round"/>
<path d="M15.1429 45.1398C13.6539 43.6507 13.6539 41.2363 15.1429 39.7471L19.7591 35.1309C21.2483 33.6419 23.6625 33.6419 25.1518 35.1309C26.6409 36.6202 26.6409 39.0344 25.1518 40.5236L20.5356 45.1398C19.0464 46.6289 16.632 46.6289 15.1429 45.1398Z" stroke="#102C3C" stroke-width="2" stroke-miterlimit="10" stroke-linecap="round" stroke-linejoin="round"/>
<path d="M20.5357 50.5325C19.0467 49.0432 19.0467 46.6288 20.5357 45.1398L25.1519 40.5236C26.6412 39.0344 29.0554 39.0344 30.5444 40.5236C32.0337 42.0127 32.0337 44.4271 30.5444 45.9163L25.9283 50.5325C24.4392 52.0215 22.0248 52.0215 20.5357 50.5325Z" stroke="#102C3C" stroke-width="2" stroke-miterlimit="10" stroke-linecap="round" stroke-linejoin="round"/>
<path d="M44.3969 23.5066L48.5919 27.704C54.548 21.7481 54.548 12.0916 48.5919 6.13566C42.6361 0.17956 32.9797 0.17956 27.0236 6.13566L18.4972 14.6622C17.0081 16.1513 17.0081 18.5657 18.4972 20.0547C19.9862 21.544 22.4006 21.544 23.8897 20.0549L32.4208 11.5237L39.5167 18.6238" stroke="#102C3C" stroke-width="2" stroke-miterlimit="10" stroke-linecap="round" stroke-linejoin="round"/>
<path d="M33.7098 45.1645L31.6899 43.1446" stroke="#92E136" stroke-width="2" stroke-miterlimit="10" stroke-linecap="round" stroke-linejoin="round"/>
</svg>
