<svg width="45" height="37" viewBox="0 0 45 37" fill="none" xmlns="http://www.w3.org/2000/svg">
<path d="M8.83944 8.93064V2.53411C8.83944 1.99236 8.40025 1.55316 7.85849 1.55316H4.58984C4.04808 1.55316 3.60889 1.99236 3.60889 2.53411V8.93064" fill="#E5E9EA"/>
<path d="M5.98428 8.93064V1.55316H4.58984C4.04808 1.55316 3.60889 1.99236 3.60889 2.53411V8.93064" fill="#D1D1D1"/>
<path d="M44.7676 10.0964V34.0288C44.7676 35.6697 43.4374 36.9999 41.7965 36.9999H2.9711C1.33026 36.9999 0 35.6697 0 34.0288V10.0964C0 8.45557 1.33026 7.12531 2.9711 7.12531H8.84598C10.1114 7.12531 11.2388 6.32404 11.6536 5.12817L12.7381 1.99811C13.1529 0.802145 14.2793 0 15.5456 0H32.8768C34.1422 0 35.2687 0.802145 35.6835 1.99811L36.7688 5.12817C37.1836 6.32413 38.3101 7.12531 39.5755 7.12531H41.7964C43.4374 7.12531 44.7676 8.45557 44.7676 10.0964Z" fill="#FCB65F"/>
<path d="M5.30085 36.9999H2.9711C1.33026 36.9999 0 35.6697 0 34.0288V10.0964C0 8.45557 1.33026 7.12531 2.9711 7.12531H5.11628V7.13081C3.5613 7.22673 2.32975 8.51774 2.32975 10.0964V34.0288C2.32975 35.6697 3.66002 36.9999 5.30085 36.9999Z" fill="#E29A4B"/>
<path d="M17.8754 0C16.6091 0 15.4826 0.802145 15.0678 1.99811L13.9833 5.12817C13.5685 6.32413 12.4411 7.12531 11.1757 7.12531H9.18213V7.10616C10.3077 6.97824 11.2762 6.21719 11.6534 5.12817L12.7379 1.99811C13.1527 0.802145 14.2792 0 15.5455 0C15.5457 0 17.8754 0 17.8754 0Z" fill="#E29A4B"/>
<path d="M44.7676 15.2109V34.0289C44.7676 35.6697 43.4374 37 41.7965 37H2.9711C1.33026 37 0 35.6697 0 34.0289V15.2109H44.7676Z" fill="black"/>
<path d="M5.30085 36.9999H2.9711C1.33026 36.9999 0 35.6697 0 34.0288V15.2109H2.32975V34.0289C2.32975 35.6697 3.66002 36.9999 5.30085 36.9999Z" fill="#404B4F"/>
<path d="M22.3838 34.2134C29.2204 34.2134 34.7625 28.6712 34.7625 21.8347C34.7625 14.9981 29.2204 9.45599 22.3838 9.45599C15.5473 9.45599 10.0051 14.9981 10.0051 21.8347C10.0051 28.6712 15.5473 34.2134 22.3838 34.2134Z" fill="#E5E9EA"/>
<path d="M31.1365 21.8347C31.1365 24.4121 30.0228 26.729 28.2494 28.3316C26.6973 29.734 24.6415 30.5881 22.384 30.5881C20.1273 30.5881 18.0707 29.7339 16.5186 28.3315C14.7453 26.7299 13.6306 24.412 13.6306 21.8347C13.6306 19.2573 14.7453 16.9394 16.5186 15.3388C18.0708 13.9354 20.1273 13.0822 22.384 13.0822C24.6415 13.0822 26.6973 13.9364 28.2494 15.3388C30.0228 16.9405 31.1365 19.2574 31.1365 21.8347Z" fill="#566368"/>
<path d="M28.5722 15.6455C30.3946 17.4679 31.2455 19.8938 31.1246 22.2809C28.7375 22.4016 26.3117 21.5509 24.4892 19.7284C22.6668 17.906 21.816 15.4801 21.9374 13.0937C24.3238 12.9723 26.7497 13.8231 28.5722 15.6455Z" fill="#6F7B7F"/>
<path d="M20.2771 23.9406C22.0996 25.7631 22.9504 28.1889 22.8296 30.576C20.4431 30.6975 18.0159 29.8467 16.1936 28.0242C14.3711 26.2017 13.5203 23.7746 13.6423 21.3888C16.0288 21.2672 18.4547 22.1181 20.2771 23.9406Z" fill="#6F7B7F"/>
<path d="M22.3837 31.2729C17.1795 31.2729 12.9456 27.0389 12.9456 21.8348C12.9456 16.6306 17.1795 12.3967 22.3837 12.3967C27.5878 12.3967 31.8218 16.6305 31.8218 21.8348C31.8218 27.039 27.5878 31.2729 22.3837 31.2729ZM22.3837 13.7671C17.9351 13.7671 14.316 17.3862 14.316 21.8348C14.316 26.2833 17.9351 29.9025 22.3837 29.9025C26.8322 29.9025 30.4514 26.2833 30.4514 21.8348C30.4514 17.3862 26.8322 13.7671 22.3837 13.7671Z" fill="#435054"/>
<path d="M22.3835 18.3212C20.4461 18.3212 18.8699 19.8974 18.8699 21.8349C18.8699 23.7724 20.4461 25.3485 22.3835 25.3485C24.3209 25.3485 25.8972 23.7723 25.8972 21.8349C25.8972 19.8975 24.3209 18.3212 22.3835 18.3212Z" fill="#435054"/>
<path d="M26.8307 6.44048H32.2153C32.9232 6.44048 33.4971 5.86664 33.4971 5.15866V3.74813C33.4971 3.04024 32.9232 2.46631 32.2153 2.46631H26.8307C26.1228 2.46631 25.5488 3.04016 25.5488 3.74813V5.15866C25.5488 5.86655 26.1228 6.44048 26.8307 6.44048Z" fill="#E5E9EA"/>
<path d="M32.2152 7.12567H26.8306C25.7459 7.12567 24.8635 6.24326 24.8635 5.15861V3.74825C24.8635 2.6636 25.7459 1.78119 26.8306 1.78119H32.2152C33.2999 1.78119 34.1823 2.6636 34.1823 3.74825V5.1587C34.1822 6.24335 33.2998 7.12567 32.2152 7.12567ZM26.8306 3.15159C26.5016 3.15159 26.234 3.41923 26.234 3.74817V5.15861C26.234 5.48763 26.5016 5.75519 26.8306 5.75519H32.2152C32.5442 5.75519 32.8118 5.48755 32.8118 5.15861V3.74825C32.8118 3.41923 32.5441 3.15167 32.2152 3.15167C32.2152 3.15159 26.8306 3.15159 26.8306 3.15159Z" fill="#E29A4B"/>
<path d="M8.5105 34.4637C9.87894 34.4637 10.9883 33.3544 10.9883 31.986C10.9883 30.6175 9.87894 29.5082 8.5105 29.5082C7.14206 29.5082 6.03271 30.6175 6.03271 31.986C6.03271 33.3544 7.14206 34.4637 8.5105 34.4637Z" fill="#566368"/>
</svg>
