<svg width="82" height="70" viewBox="0 0 82 70" fill="none" xmlns="http://www.w3.org/2000/svg">
<path d="M73.2087 0H9.04199C4.2095 0 0.291992 3.91751 0.291992 8.75V61.25C0.291992 66.0825 4.2095 70 9.04199 70H73.2087C78.0411 70 81.9587 66.0825 81.9587 61.25V8.75C81.9587 3.91751 78.0411 0 73.2087 0Z" fill="#3B3C3A"/>
<path d="M27.526 40.6096C26.6179 39.7167 25.5272 39.0311 24.3288 38.6001C23.1304 38.1691 21.8529 38.0028 20.5841 38.1128C19.3153 38.2227 18.0854 38.6063 16.9791 39.2371C15.8727 39.8678 14.9162 40.7308 14.1753 41.7667L0.354346 60.195C0.206636 61.424 0.321047 62.6702 0.69004 63.8517C1.05903 65.0332 1.67423 66.1231 2.49508 67.0495C3.31593 67.9759 4.3238 68.7179 5.45227 69.2265C6.58073 69.735 7.80416 69.9987 9.04193 70H27.9586L40.7 53.7833L27.526 40.6096Z" fill="#8BB857"/>
<path d="M29.4585 29.1667C34.291 29.1667 38.2085 25.2492 38.2085 20.4167C38.2085 15.5842 34.291 11.6667 29.4585 11.6667C24.626 11.6667 20.7085 15.5842 20.7085 20.4167C20.7085 25.2492 24.626 29.1667 29.4585 29.1667Z" fill="white"/>
<path d="M65.3359 28.8377C64.4575 27.9703 63.4064 27.2975 62.251 26.863C61.0955 26.4285 59.8616 26.242 58.6293 26.3156C57.3971 26.3892 56.1941 26.7213 55.0986 27.2903C54.0031 27.8593 53.0396 28.6524 52.2707 29.6182L20.5417 70H73.2086C75.5292 70 77.7548 69.0781 79.3958 67.4372C81.0367 65.7962 81.9586 63.5706 81.9586 61.25V45.4589L65.3359 28.8377Z" fill="#92E136"/>
</svg>
