<svg id="Capa_1" enable-background="new 0 0 512 512" height="512" viewBox="0 0 512 512" width="512" xmlns="http://www.w3.org/2000/svg"><g><g fill="#685e68"><path d="m95.316 154.452h39.633v98.265h-39.633z"/><path d="m134.949 61.094h-39.633v-47.718c0-5.316 4.31-9.626 9.626-9.626h20.38c5.316 0 9.626 4.31 9.626 9.626v47.718z"/><path d="m95.316 339.406h39.633v161.344h-39.633z"/></g><path d="m95.316 339.406h39.633v49.687h-39.633z" fill="#554e56"/><path d="m377.051 154.452h39.633v98.265h-39.633z" fill="#685e68"/><path d="m416.684 61.094h-39.633v-47.718c0-5.316 4.31-9.626 9.626-9.626h20.38c5.316 0 9.626 4.31 9.626 9.626v47.718z" fill="#685e68"/><path d="m377.051 339.406h39.633v161.344h-39.633z" fill="#685e68"/><path d="m377.051 339.406h39.633v49.687h-39.633z" fill="#554e56"/><path d="m468.05 177.474h-424.1c-7.444 0-13.479-6.035-13.479-13.479v-112.418c0-7.444 6.035-13.479 13.479-13.479h424.1c7.444 0 13.479 6.035 13.479 13.479v112.419c-.001 7.444-6.035 13.478-13.479 13.478z" fill="#ffe177"/><path d="m468.05 38.098h-21.104c7.444 0 13.479 6.035 13.479 13.479v112.419c0 7.444-6.035 13.479-13.479 13.479h21.104c7.444 0 13.479-6.035 13.479-13.479v-112.419c-.001-7.444-6.035-13.479-13.479-13.479z" fill="#ffd15b"/><path d="m468.05 369.071h-424.1c-7.444 0-13.479-6.035-13.479-13.479v-112.419c0-7.444 6.035-13.479 13.479-13.479h424.1c7.444 0 13.479 6.035 13.479 13.479v112.419c-.001 7.444-6.035 13.479-13.479 13.479z" fill="#ffe177"/><path d="m468.05 229.694h-21.104c7.444 0 13.479 6.035 13.479 13.479v112.419c0 7.444-6.035 13.479-13.479 13.479h21.104c7.444 0 13.479-6.035 13.479-13.479v-112.419c-.001-7.444-6.035-13.479-13.479-13.479z" fill="#ffd15b"/><g><g><g><path d="m313.792 141.335c-4.143 0-7.5-3.357-7.5-7.5v-51.999c0-3.282 2.135-6.184 5.268-7.16 3.138-.975 6.539.197 8.404 2.898l22.624 32.762-.276-28.525c-.04-4.142 3.285-7.532 7.428-7.572h.074c4.108 0 7.458 3.31 7.498 7.428l.487 50.341c0 4.022-2.268 7.284-5.776 8.381-3.446 1.078-7.073-.245-9.239-3.372l-21.491-31.121v27.94c-.001 4.141-3.358 7.499-7.501 7.499z" fill="#554e56"/></g></g><g><g><path d="m244.99 141.334c-3.733.001-7.034-2.371-8.225-5.913-.03-.088-.058-.177-.084-.267l-7.334-24.858-4.415 24.464c-.736 4.076-4.635 6.78-8.713 6.049-4.076-.736-6.785-4.637-6.049-8.713l9.157-50.732c.76-3.954 4.026-6.84 7.957-7.103 3.94-.261 7.552 2.162 8.805 5.896.029.088.057.176.083.265l8.714 29.535 8.398-29.46c.025-.087.051-.173.079-.258 1.215-3.747 4.793-6.202 8.743-5.986 3.932.222 7.228 3.072 8.014 6.932l9.715 50.836c.778 4.069-1.89 7.997-5.958 8.774-4.07.785-7.997-1.89-8.774-5.958l-4.7-24.592-7.079 24.833c-.025.088-.052.175-.08.261-1.158 3.567-4.457 5.978-8.208 5.996-.016-.001-.032-.001-.046-.001z" fill="#554e56"/></g></g><g><g><path d="m292.605 141.335c-4.143 0-7.5-3.357-7.5-7.5v-52.097c0-4.143 3.357-7.5 7.5-7.5s7.5 3.357 7.5 7.5v52.097c0 4.142-3.357 7.5-7.5 7.5z" fill="#554e56"/></g></g><g><g><path d="m396.385 141.335c-18.498 0-33.548-15.05-33.548-33.549 0-18.498 15.05-33.548 33.548-33.548 6.723 0 13.211 1.982 18.763 5.733 3.433 2.319 4.335 6.981 2.017 10.413-2.318 3.433-6.98 4.335-10.413 2.017-3.063-2.069-6.647-3.163-10.366-3.163-10.228 0-18.548 8.32-18.548 18.548s8.32 18.549 18.548 18.549c7.935 0 12.202-4.942 13.978-11.049h-7.075c-4.143 0-7.5-3.357-7.5-7.5s3.357-7.5 7.5-7.5h15.584c4.143 0 7.5 3.357 7.5 7.5-.001 19.753-12.332 33.549-29.988 33.549z" fill="#554e56"/></g></g><g><g><path d="m119.176 141.335c-18.499 0-33.548-15.05-33.548-33.549 0-18.498 15.05-33.548 33.548-33.548 6.723 0 13.21 1.982 18.763 5.733 3.432 2.319 4.335 6.981 2.016 10.413-2.319 3.433-6.98 4.334-10.414 2.017-3.062-2.069-6.647-3.163-10.365-3.163-10.228 0-18.548 8.32-18.548 18.548s8.321 18.549 18.548 18.549c3.738 0 6.869-1.102 9.307-3.273.479-.426.934-.896 1.356-1.399 2.662-3.174 7.393-3.589 10.566-.928 3.174 2.662 3.589 7.393.928 10.566-.889 1.06-1.856 2.057-2.875 2.964-5.191 4.625-11.86 7.07-19.282 7.07z" fill="#554e56"/></g></g><g><path d="m175.977 141.335c-18.499 0-33.548-15.05-33.548-33.549 0-18.498 15.05-33.548 33.548-33.548s33.548 15.05 33.548 33.548c0 18.499-15.049 33.549-33.548 33.549zm0-52.097c-10.228 0-18.548 8.32-18.548 18.548s8.321 18.549 18.548 18.549 18.548-8.321 18.548-18.549-8.32-18.548-18.548-18.548z" fill="#554e56"/></g></g><g><g><g><path d="m336.185 332.931c-4.143 0-7.5-3.357-7.5-7.5v-51.999c0-3.282 2.135-6.184 5.268-7.16 3.137-.976 6.539.197 8.404 2.898l22.624 32.763-.276-28.526c-.04-4.142 3.285-7.532 7.428-7.572h.074c4.108 0 7.458 3.31 7.498 7.428l.487 50.342c0 4.022-2.268 7.284-5.776 8.381-3.441 1.079-7.072-.244-9.239-3.372l-21.491-31.121v27.939c-.001 4.141-3.358 7.499-7.501 7.499z" fill="#554e56"/></g></g><g><g><path d="m157.462 332.931c-9.203 0-17.845-3.712-23.711-10.186-2.782-3.069-2.548-7.812.521-10.594 3.071-2.781 7.812-2.548 10.594.521 2.984 3.292 7.693 5.258 12.597 5.258 4.457 0 7.689-2.652 8.128-5.109.576-3.226-4.6-5.401-6.2-5.992-8.11-2.99-15.313-6.197-15.616-6.332-.361-.161-.708-.351-1.04-.566-5.819-3.794-8.817-10.446-7.824-17.359 1.054-7.344 6.408-13.321 13.972-15.6 14.738-4.438 26.853 5.551 27.361 5.978 3.17 2.666 3.58 7.396.915 10.567-2.653 3.155-7.353 3.577-10.522.952-.219-.174-6.621-5.185-13.427-3.135-2.8.844-3.346 2.637-3.451 3.368-.083.582-.07 1.615.825 2.402 1.958.855 7.769 3.354 13.999 5.651 13.717 5.061 17.143 15.045 15.775 22.702-1.809 10.125-11.437 17.474-22.896 17.474z" fill="#554e56"/></g></g><g><path d="m217.584 332.931c-18.499 0-33.548-15.05-33.548-33.548 0-18.499 15.05-33.549 33.548-33.549s33.548 15.05 33.548 33.549c.001 18.498-15.049 33.548-33.548 33.548zm0-52.097c-10.228 0-18.548 8.321-18.548 18.549s8.321 18.548 18.548 18.548 18.548-8.32 18.548-18.548-8.32-18.549-18.548-18.549z" fill="#554e56"/></g><g><path d="m289.436 332.931c-18.499 0-33.549-15.05-33.549-33.548 0-18.499 15.05-33.549 33.549-33.549 18.498 0 33.548 15.05 33.548 33.549 0 18.498-15.05 33.548-33.548 33.548zm0-52.097c-10.228 0-18.549 8.321-18.549 18.549s8.321 18.548 18.549 18.548 18.548-8.32 18.548-18.548-8.32-18.549-18.548-18.549z" fill="#554e56"/></g></g><g><g><path d="m249.468 508.25c-.482 0-.967-.047-1.447-.141-1.971-.388-3.703-1.549-4.811-3.225l-12.035-18.211c-2.284-3.455-1.333-8.108 2.122-10.392 3.456-2.285 8.109-1.333 10.393 2.122l7.839 11.861 20.416-13.923c3.423-2.334 8.088-1.451 10.422 1.971s1.451 8.088-1.971 10.422l-26.703 18.211c-1.254.857-2.729 1.305-4.225 1.305z" fill="#6fd7a3"/></g><g><g><path d="m36.202 508.25c-.468 0-.939-.044-1.407-.133-2.251-.431-4.182-1.866-5.242-3.898l-8.041-15.413c-1.916-3.672-.492-8.202 3.18-10.118 3.674-1.916 8.203-.492 10.119 3.181l3.659 7.013 10.672-9.22c3.135-2.708 7.871-2.362 10.578.772 2.708 3.135 2.362 7.871-.772 10.579l-17.842 15.413c-1.375 1.186-3.119 1.824-4.904 1.824z" fill="#6fd7a3"/></g><g><path d="m465.997 508.25c-.468 0-.939-.044-1.407-.133-2.251-.431-4.183-1.866-5.242-3.898l-8.041-15.413c-1.916-3.672-.492-8.202 3.181-10.118 3.669-1.916 8.202-.494 10.118 3.181l3.658 7.013 10.672-9.22c3.135-2.707 7.871-2.362 10.579.772s2.361 7.871-.772 10.579l-17.843 15.413c-1.374 1.186-3.118 1.824-4.903 1.824z" fill="#6fd7a3"/></g></g></g><g><path d="m504.5 508.25h-497c-4.142 0-7.5-3.357-7.5-7.5s3.358-7.5 7.5-7.5h497c4.143 0 7.5 3.357 7.5 7.5s-3.358 7.5-7.5 7.5z" fill="#9be69d"/></g></g></svg>