<svg width="84" height="49" viewBox="0 0 84 49" fill="none" xmlns="http://www.w3.org/2000/svg">
<path d="M70.0994 48.5693H41.6768L45.3101 41.4298C45.8544 40.3604 46.9466 39.6807 48.1465 39.6647L68.0588 39.3996C72.3732 39.0503 73.6461 35.2757 73.7433 33.432C73.7433 29.3566 70.4395 27.9496 68.7876 27.7555H51.8798L56.8355 19.0225H66.6012C69.7496 18.7896 70.5367 15.8204 70.5367 14.3649C70.7699 11.221 67.7187 10.5321 66.1639 10.5806H62.7896C61.8468 10.5806 61.2213 9.60355 61.616 8.74729L64.9979 1.41094C68.0296 1.2945 71.8971 2.13869 73.4518 2.57534C84.5293 7.93159 81.1769 17.9066 78.116 22.2246C83.4799 26.5329 84.2378 31.7824 83.9463 33.8687C83.3633 44.5812 74.4721 48.1326 70.0994 48.5693Z" fill="#92E136"/>
<path d="M21.6462 47.2769L0 6.56925H10.642C11.8454 6.56925 12.9492 7.23816 13.506 8.30503L27.1397 34.4243C27.6431 35.3886 27.6274 36.5414 27.0979 37.4917L21.6462 47.2769Z" fill="white"/>
<path d="M38.4462 47.2769L16.8 6.56925H27.4327C28.641 6.56925 29.7484 7.24352 30.303 8.31703L44.4231 35.6462L38.4462 47.2769Z" fill="white"/>
<path d="M38.6077 47.2769L61.8692 0.430786H51.3142C50.0654 0.430786 48.9285 1.15042 48.3942 2.27906L32.4434 35.9692L38.6077 47.2769Z" fill="white"/>
<path d="M21.6462 47.2769L0 6.56925H10.642C11.8454 6.56925 12.9492 7.23816 13.506 8.30503L27.1397 34.4243C27.6431 35.3886 27.6274 36.5414 27.0979 37.4917L21.6462 47.2769Z" stroke="black"/>
<path d="M38.4462 47.2769L16.8 6.56925H27.4327C28.641 6.56925 29.7484 7.24352 30.303 8.31703L44.4231 35.6462L38.4462 47.2769Z" stroke="black"/>
<path d="M38.6077 47.2769L61.8692 0.430786H51.3142C50.0654 0.430786 48.9285 1.15042 48.3942 2.27906L32.4434 35.9692L38.6077 47.2769Z" stroke="black"/>
</svg>
