<svg width="71" height="70" viewBox="0 0 71 70" fill="none" xmlns="http://www.w3.org/2000/svg">
<path d="M70.5001 44.4584V49.3007C70.5001 50.1043 70.4651 50.9149 70.3951 51.7185C69.413 62.775 61.7326 70 50.6506 70H20.3499C14.7387 70 10.0042 68.179 6.60244 64.8771C5.26978 63.6524 4.1475 62.2136 3.27075 60.5644C4.4281 59.1574 5.72569 57.617 6.98821 56.0728C9.12748 53.5115 11.1966 50.9814 12.4942 49.3357C14.4231 46.9497 19.5082 40.6686 26.5573 43.616C27.9952 44.2127 29.2579 45.0548 30.415 45.7916C33.2556 47.6865 34.448 48.2479 36.4472 47.1601C38.6564 45.9673 40.0942 43.616 41.6024 41.1597C42.4091 39.858 43.2155 38.5984 44.0923 37.4402C47.915 32.4576 53.8069 31.1241 58.7167 34.0718C61.1716 35.5453 63.2758 37.4052 65.2396 39.2966C65.6607 39.7177 66.0814 40.1072 66.4671 40.4933C66.9931 41.0193 68.7466 42.7739 70.5001 44.4584Z" fill="#92E136"/>
<path d="M50.6854 0H20.3497C8.46092 0 0.5 8.31624 0.5 20.6994V49.301C0.5 53.6133 1.48196 57.4416 3.27053 60.5647C4.42784 59.1577 5.72546 57.6173 6.98798 56.0696C9.12725 53.5118 11.1964 50.9817 12.494 49.336C14.4229 46.95 19.508 40.6689 26.5571 43.6163C27.995 44.213 29.2574 45.0551 30.4148 45.7919C33.2554 47.6868 34.4479 48.2482 36.4467 47.1569C38.6563 45.9676 40.0941 43.6163 41.6022 41.1565C42.4086 39.8583 43.2154 38.5987 44.0921 37.4405C47.9148 32.4579 53.8067 31.1244 58.7165 34.0721C61.1714 35.5456 63.2756 37.4055 65.2395 39.2969C65.6602 39.718 66.0812 40.1075 66.4669 40.4936C66.993 41.0161 68.7465 42.7707 70.5 44.4587V20.6994C70.5 8.31624 62.5392 0 50.6854 0Z" fill="#3B3B3A"/>
<path d="M33.5907 23.7882C33.5907 28.7184 29.4842 32.8239 24.5567 32.8239C19.6328 32.8239 15.5261 28.7184 15.5261 23.7882C15.5261 18.8616 19.6328 14.7526 24.5567 14.7526C29.4842 14.7526 33.5907 18.8616 33.5907 23.7882Z" fill="white"/>
</svg>
